<svg width="27" height="27" viewBox="0 0 27 27" fill="none" xmlns="http://www.w3.org/2000/svg">
<path d="M24.1667 26.3333H2.83335C2.12611 26.3333 1.44783 26.0523 0.947738 25.5523C0.447639 25.0522 0.166687 24.3738 0.166687 23.6666V9.06528C0.188851 8.62459 0.31839 8.19594 0.544036 7.81667C0.769681 7.43739 1.08458 7.11907 1.46135 6.88928L12.128 0.489307C12.5423 0.240895 13.0163 0.10968 13.4993 0.10968C13.9824 0.10968 14.4564 0.240895 14.8707 0.489307L25.5374 6.88928C26.3386 7.37331 26.8307 8.23998 26.8334 9.17598V23.6666C26.8334 24.3738 26.5524 25.0522 26.0523 25.5523C25.5522 26.0523 24.874 26.3333 24.1667 26.3333ZM2.83335 10.1573V23.6666H24.1667V10.1573L13.5 17.2679L2.83335 10.1573ZM13.5 2.77597L4.58802 8.12265L13.5 14.064L22.4107 8.12265L13.5 2.77597Z" fill="#F0E3CA"/>
</svg>
